<svg xmlns="http://www.w3.org/2000/svg" width="160" height="56" viewBox="0 0 160 56">
  <path id="logo" d="M-2383.025-1390a36.775,36.775,0,0,1-4.964-.339c.416-12.074.115-43.085-1.011-55.661a71.65,71.65,0,0,1,12.848,4.976,50.284,50.284,0,0,1,10.513,7.025,33.786,33.786,0,0,1,7.316,8.953,27.389,27.389,0,0,1,2.189,5.162,26.476,26.476,0,0,1,1.067,5.6,19.5,19.5,0,0,1-1.065,8.213,20.635,20.635,0,0,1-4.172,6.88,24.873,24.873,0,0,1-4.432,3.841,29.114,29.114,0,0,1-5.415,2.893,32.811,32.811,0,0,1-6.17,1.824,35.444,35.444,0,0,1-6.7.635Zm6.844-38.443a8.134,8.134,0,0,0-5.3,3.471c-1.786,2.674-2.19,6.493-1.2,11.351,1.056,5.2,2.357,8.519,4.1,10.441a8.235,8.235,0,0,0,6.1,2.5c.14.009.282.014.423.014a9.681,9.681,0,0,0,6.69-3.163,15.191,15.191,0,0,0,4.043-7.544c1.273-6.118-.939-9.454-4.652-12.58-3.282-2.763-6.063-4.6-8.963-4.6A7.082,7.082,0,0,0-2376.18-1428.443Zm83.866,22.428c0-2.5.989-4.181,3.327-4.181s3.412,1.678,3.412,4.181c0,2.534-1.071,4.015-3.412,4.015S-2292.314-1403.481-2292.314-1406.015Zm1.367.049c0,1.613.28,3.307,1.96,3.307,1.7,0,2.044-1.695,2.044-3.307,0-1.712-.344-3.57-2.044-3.57C-2290.667-1409.537-2290.947-1407.678-2290.947-1405.967Zm-9.827,1.992v-5.283h-1.384v-.757h1.384v-1.843l1.219-.741v2.584h2.142v.757h-2.142v4.64c0,.922,0,1.826,1.352,1.826a2.07,2.07,0,0,0,.741-.1v.823a5.192,5.192,0,0,1-.972.066C-2300.05-1402-2300.774-1402.561-2300.774-1403.975Zm-8.871,0c0-2.3,2.95-2.419,4.416-2.5v-1.038c0-.84-.1-2.023-1.4-2.023-1.253,0-1.336.971-1.385,1.562h-1.417c.083-.954.561-2.221,2.851-2.221,2.308,0,2.571,1.5,2.571,2.615v5.4h-1.22v-1.1h-.032a2.672,2.672,0,0,1-2.258,1.284A2.019,2.019,0,0,1-2309.646-1403.975Zm1.319-.165a1.2,1.2,0,0,0,1.237,1.316,2.017,2.017,0,0,0,1.861-2.138v-.856C-2305.657-1405.785-2308.327-1405.818-2308.327-1404.14Zm-9.514-1.941c0-2.239.841-4.115,2.819-4.115a2.152,2.152,0,0,1,2.109,1.58h.033v-4.92h1.22v11.354h-1.22v-1.513h-.033a2.41,2.41,0,0,1-2.273,1.695C-2317.3-1402-2317.841-1403.992-2317.841-1406.081Zm1.369.082c0,1.53.312,3.175,1.565,3.175,1.219,0,2.027-1.463,2.027-3.422,0-.923-.462-3.16-1.928-3.16C-2316.093-1409.405-2316.472-1407.646-2316.472-1406Zm-17.99,1.579v-5.6h1.221v5.068c0,.841.345,1.941,1.4,1.941,1.435,0,2.076-2.138,2.076-3.652v-3.357h1.22v7.833h-1.187v-1.908h-.033c-.757,1.612-1.251,2.09-2.817,2.09C-2333.885-1402-2334.462-1403.4-2334.462-1404.419Zm-8.756-1.6c0-2.5.989-4.181,3.329-4.181s3.413,1.678,3.413,4.181c0,2.534-1.072,4.015-3.413,4.015S-2343.219-1403.481-2343.219-1406.015Zm1.369.049c0,1.613.28,3.307,1.96,3.307,1.7,0,2.044-1.695,2.044-3.307,0-1.712-.346-3.57-2.044-3.57C-2341.57-1409.537-2341.85-1407.678-2341.85-1405.967Zm63.054,3.785v-5.068c0-.84,0-1.941-1.089-1.941-1.647,0-2.39,2.138-2.39,3.652v3.357h-1.219v-7.833h1.186v1.925h.032a3.144,3.144,0,0,1,2.818-2.106,1.911,1.911,0,0,1,1.879,2.057v5.957Zm-16.867,0v-7.833h1.219v7.833Zm-25.479,0v-5.068c0-.84,0-1.941-1.087-1.941-1.648,0-2.39,2.138-2.39,3.652v3.357h-1.219v-7.833h1.186v1.925h.032a3.144,3.144,0,0,1,2.819-2.106,1.911,1.911,0,0,1,1.878,2.057v5.957Zm-28.458,0v-11.354h5.5v.9h-4.135v4.048h3.922v.938h-3.922v5.464Zm53.855-9.874v-1.48h1.384v1.48Zm60.779-10.736c0-2.238.891-3.868,3.182-3.868,2.784,0,2.784,2.517,2.784,3.159h-4.6c0,1.728.592,4.245,3.015,4.245a4.525,4.525,0,0,0,1.434-.23v.708a5.91,5.91,0,0,1-1.944.312C-2233.432-1418.466-2234.966-1419.913-2234.966-1422.792Zm1.4-1.433h3.3c0-.675-.2-1.777-1.6-1.777A1.74,1.74,0,0,0-2233.563-1424.225Zm-20.958,1.416c0-2.567,1.269-3.851,3.2-3.851a2.415,2.415,0,0,1,2.7,2.6h-1.417c0-.625,0-1.942-1.367-1.942-1.386,0-1.746,1.6-1.746,2.9,0,1.679.708,3.85,2.983,3.85a4.214,4.214,0,0,0,1.334-.212v.724a5.43,5.43,0,0,1-1.763.279C-2253.532-1418.466-2254.522-1420.357-2254.522-1422.809Zm-12.218.264c0-2.24.841-4.115,2.817-4.115a2.155,2.155,0,0,1,2.111,1.58h.031V-1430h1.22v11.354h-1.22v-1.514h-.031a2.413,2.413,0,0,1-2.275,1.694C-2266.2-1418.466-2266.74-1420.456-2266.74-1422.545Zm1.367.081c0,1.531.314,3.176,1.567,3.176,1.219,0,2.026-1.464,2.026-3.422,0-.923-.461-3.16-1.928-3.16C-2264.993-1425.87-2265.373-1424.111-2265.373-1422.464Zm-8.788-.328c0-2.238.892-3.868,3.182-3.868,2.785,0,2.785,2.517,2.785,3.159h-4.6c0,1.728.594,4.245,3.017,4.245a4.539,4.539,0,0,0,1.434-.23v.708a5.919,5.919,0,0,1-1.944.312C-2272.628-1418.466-2274.161-1419.913-2274.161-1422.792Zm1.4-1.433h3.3c0-.675-.2-1.777-1.6-1.777A1.741,1.741,0,0,0-2272.76-1424.225Zm-30.487,3.785c0-2.3,2.949-2.419,4.416-2.5v-1.038c0-.838-.1-2.024-1.4-2.024-1.253,0-1.335.972-1.385,1.563h-1.416c.082-.954.56-2.221,2.851-2.221,2.307,0,2.571,1.5,2.571,2.616v5.4h-1.22v-1.1h-.033a2.668,2.668,0,0,1-2.257,1.283A2.018,2.018,0,0,1-2303.247-1420.439Zm1.319-.165a1.2,1.2,0,0,0,1.235,1.316,2.017,2.017,0,0,0,1.862-2.138v-.856C-2299.259-1422.249-2301.928-1422.283-2301.928-1420.6Zm-5.74.165v-5.283h-1.383v-.757h1.383v-1.842l1.22-.742v2.584h2.142v.757h-2.142v4.641c0,.922,0,1.825,1.353,1.825a2.1,2.1,0,0,0,.74-.1v.823a5.237,5.237,0,0,1-.97.065C-2306.943-1418.466-2307.668-1419.025-2307.668-1420.439Zm-8.59-2.353c0-2.238.89-3.868,3.181-3.868,2.786,0,2.786,2.517,2.786,3.159h-4.6c0,1.728.591,4.245,3.013,4.245a4.549,4.549,0,0,0,1.436-.23v.708a5.919,5.919,0,0,1-1.945.312C-2314.724-1418.466-2316.258-1419.913-2316.258-1422.792Zm1.4-1.433h3.295c0-.675-.2-1.777-1.6-1.777A1.739,1.739,0,0,0-2314.856-1424.225Zm-20.118,1.433c0-2.238.89-3.868,3.181-3.868,2.785,0,2.785,2.517,2.785,3.159h-4.6c0,1.728.593,4.245,3.016,4.245a4.538,4.538,0,0,0,1.433-.23v.708a5.9,5.9,0,0,1-1.944.312C-2333.44-1418.466-2334.974-1419.913-2334.974-1422.792Zm1.4-1.433h3.3c0-.675-.2-1.777-1.6-1.777A1.74,1.74,0,0,0-2333.572-1424.225Zm95.322,5.579v-5.069c0-.841,0-1.941-1.086-1.941-1.649,0-2.389,2.138-2.389,3.652v3.358h-1.219v-7.834h1.184v1.924h.035a3.139,3.139,0,0,1,2.819-2.105,1.912,1.912,0,0,1,1.878,2.057v5.958Zm-8.6,0v-7.834h1.22v7.834Zm-11,0v-7.834h1.22v7.834Zm-19.726,0v-10.2h-.032l-3.362,10.2h-1.186l-3.362-10.138h-.033v10.138h-1.089V-1430h1.931l3.245,9.742h.032l3.2-9.742h1.928v11.354Zm-17.357,0V-1430h1.219v11.354Zm-27.687,0V-1430h5.506v.9h-4.137v4.049h3.922v.937h-3.922v5.465Zm-15.634,0v-5.25c0-.9-.164-1.76-1.17-1.76-1.467,0-2.307,2.106-2.307,3.536v3.474h-1.22V-1430h1.22v5.627h.033c.23-.625,1.022-2.287,2.653-2.287a1.972,1.972,0,0,1,2.01,2.221v5.793Zm-10.073,0V-1429.1H-2351v-.9h6.708v.9h-2.67v10.451Zm101.394-9.875V-1430h1.384v1.48Zm-11,0V-1430h1.385v1.48Z" transform="translate(2389 1446)" fill="#036fc0"/>
</svg>
